<svg id="Layer_2" data-name="Layer 2" xmlns="http://www.w3.org/2000/svg" xmlns:xlink="http://www.w3.org/1999/xlink" viewBox="0 0 119.61 27" width="150" height="34">
  <defs>
    <style>
      .cls-1 {
        fill: url(#linear-gradient);
      }

      .cls-2 {
        fill: #df2acf;
      }

      .cls-3 {
        fill: url(#linear-gradient-3);
      }

      .cls-4 {
        fill: url(#linear-gradient-4);
      }

      .cls-5 {
        fill: url(#linear-gradient-2);
      }
    </style>
    <linearGradient id="linear-gradient" x1="3774.05" y1="-1704.14" x2="4360.67" y2="-1704.14" gradientTransform="translate(-727.71 -314.59) scale(.19 -.19)" gradientUnits="userSpaceOnUse">
      <stop offset="0" stop-color="#5f8dcc"/>
      <stop offset=".1" stop-color="#75b5ff"/>
      <stop offset=".2" stop-color="#75b5ff"/>
      <stop offset=".42" stop-color="#00d8f7"/>
      <stop offset="1" stop-color="#f246eb"/>
    </linearGradient>
    <linearGradient id="linear-gradient-2" y1="-1702.49" y2="-1702.49" xlink:href="#linear-gradient"/>
    <linearGradient id="linear-gradient-3" y1="-1703.39" y2="-1703.39" xlink:href="#linear-gradient"/>
    <linearGradient id="linear-gradient-4" y1="-1703.24" y2="-1703.24" xlink:href="#linear-gradient"/>
  </defs>
  <g id="Layer_1-2" data-name="Layer 1">
    <g>
      <g>
        <g>
          <path class="cls-1" d="m50.02.27h-2.39c-.94,0-1.69.77-1.69,1.69v15.47c0,2.21-2.58,3.93-4.82,3.93s-4.82-1.71-4.82-3.93V1.96c0-.94-.77-1.69-1.69-1.69h-2.39c-.94,0-1.69.77-1.69,1.69v15.91c0,7.2,6.64,9.13,10.59,9.13,5.64,0,10.59-3.16,10.59-9.13V1.96c0-.92-.75-1.69-1.69-1.69Z"/>
          <path class="cls-5" d="m79.95,0c-3.81,0-6.16,1.6-7.2,2.52-1.79-1.6-4.39-2.52-7.22-2.52-5.39,0-9.96,3.24-9.96,9.09v15.85c0,.94.77,1.69,1.69,1.69h2.1c.94,0,1.69-.77,1.69-1.69v-15.41c0-2.2,2.39-3.91,4.47-3.91s4.47,1.71,4.47,3.91v15.41c0,.94.77,1.69,1.69,1.69h2.12c.94,0,1.69-.77,1.69-1.69v-15.41c0-2.2,2.39-3.91,4.47-3.91s4.47,1.71,4.47,3.91v15.41c0,.94.77,1.69,1.69,1.69h2.1c.94,0,1.69-.77,1.69-1.69v-15.85c-.02-7.53-6.76-9.09-9.98-9.09Z"/>
          <path class="cls-3" d="m104.01.08c-5.66,0-10.59,3.18-10.59,9.13v8.57c0,6.32,5.32,9.13,10.59,9.13,5.57,0,10.59-3.08,10.59-9.13v-8.57C114.6,2.89,109.28.08,104.01.08Zm-4.82,9.55c0-2.04,2.25-3.83,4.82-3.83s4.82,1.79,4.82,3.83v7.7c0,2.04-2.25,3.83-4.82,3.83s-4.82-1.79-4.82-3.83v-7.7Z"/>
        </g>
        <path class="cls-4" d="m22.21,11.07c1.12,0,2.14-.89,2.14-2.12s-1.02-2.12-2.14-2.12h-3.16c-.64,0-1.17-.52-1.17-1.17s.52-1.17,1.17-1.17h6.82c1.25,0,2.14-1.02,2.14-2.12s-.91-2.12-2.14-2.12H2.58C1.16.25,0,1.41,0,2.83v4.1C0,7.84.73,8.57,1.64,8.57h2.16c.91,0,1.64-.73,1.64-1.64v-1.17s.02-.08.04-.1.06-.04.1-.04h7.86L.67,21.94c-.44.56-.67,1.27-.67,1.98v.54c0,1.21,1,2.21,2.21,2.21h18.14c1.43,0,2.58-1.16,2.58-2.58v-4.1c0-.91-.73-1.64-1.64-1.64h-2.16c-.91,0-1.64.73-1.64,1.64v1.17c0,.08-.06.13-.13.13h-8.59c-.15,0-.29-.08-.35-.21-.06-.13-.04-.29.04-.4l7.11-9.07c.27-.33.65-.52,1.08-.52l5.55-.02Z"/>
      </g>
      <path class="cls-2" d="m118.86,4.55c-.48.46-1.04.69-1.71.69s-1.27-.23-1.73-.71c-.48-.48-.71-1.06-.71-1.73,0-.71.25-1.31.77-1.79.48-.44,1.04-.67,1.69-.67s1.25.23,1.73.71c.48.48.71,1.06.71,1.73-.02.71-.25,1.29-.75,1.77Zm-3.16-3.18c-.39.4-.58.87-.58,1.43s.19,1.06.6,1.44c.39.4.87.6,1.43.6s1.04-.19,1.43-.6.6-.89.6-1.44-.19-1.02-.6-1.43-.87-.62-1.43-.62c-.56,0-1.04.21-1.44.62Zm.37,2.77V1.43h1.31c.21.02.39.06.54.13.25.13.37.35.37.65,0,.23-.06.39-.19.5s-.29.15-.46.17c.17.04.31.1.39.15.15.13.23.33.23.62v.33s.02.06.02.08l.02.08h-.67c-.02-.08-.04-.21-.04-.39s-.02-.27-.04-.33c-.04-.1-.1-.15-.19-.19-.06-.02-.13-.04-.25-.04l-.15-.02h-.15v.96s-.71,0-.71,0Zm1.31-2.18c-.1-.04-.23-.06-.4-.06h-.17v.79h.27c.17,0,.29-.04.39-.1s.13-.17.13-.33c0-.13-.08-.25-.21-.31Z"/>
    </g>
  </g>
</svg>